<svg width="400" height="56" viewBox="0 0 400 56" fill="none" xmlns="http://www.w3.org/2000/svg">
<path d="M59.2594 55.0343L59.2559 0L52.9341 0.0241818V55.0343H59.2594Z" fill="#FFDA1E"/>
<path d="M0 55.0343H6.32527V7.068L26.7934 40.0693L30.1996 33.5644L9.38254 0L0 0.00690909V55.0343Z" fill="#FFDA1E"/>
<path d="M26.175 55.0343H33.3156L46.467 29.9267V16.295L26.175 55.0343Z" fill="#FFDA1E"/>
<path d="M88.6686 20.4436H85.7699L85.2733 11.8692H85.2328L82.5267 20.4436H80.1956L77.4895 11.8692H77.4388L76.9828 20.4436H74.074L75.0267 7.84558H78.7463L81.3713 16.126H81.4118L83.9963 7.84558H87.7361L88.6686 20.4334V20.4436Z" fill="#6D6E71"/>
<path d="M93.635 20.4436H90.6755V7.84558H93.635V20.4334V20.4436Z" fill="#6D6E71"/>
<path d="M103.415 20.4436H96.1182V7.84558H99.0574V17.9909H103.415V20.4334V20.4436Z" fill="#6D6E71"/>
<path d="M111.949 19.6227C111.057 20.3321 109.892 20.6666 108.534 20.6666C106.709 20.6666 105.088 19.7139 104.064 18.7713L105.523 16.6227C106.436 17.5754 107.844 18.2139 108.807 18.2139C109.77 18.2139 110.49 17.7578 110.49 16.9166C110.49 16.0754 109.557 15.7308 109.01 15.5281C108.463 15.3254 107.51 15.001 107.094 14.8186C106.78 14.6767 106.142 14.4335 105.594 13.9064C105.047 13.3997 104.611 12.67 104.611 11.474C104.611 10.2781 105.199 9.32535 105.929 8.71725C106.638 8.11927 107.794 7.71387 109.253 7.71387C110.713 7.71387 112.395 8.40306 113.246 9.26454L111.99 11.322C111.26 10.5922 110.125 10.045 109.182 10.045C108.24 10.045 107.54 10.4098 107.54 11.1801C107.54 11.9504 108.25 12.2341 108.817 12.4571C109.365 12.6801 110.297 13.0044 110.692 13.1666C111.037 13.2983 111.878 13.6227 112.446 14.1902C112.973 14.7173 113.429 15.4875 113.429 16.6125C113.429 17.8186 112.861 18.9132 111.949 19.6227Z" fill="#6D6E71"/>
<path d="M123.371 10.1868H120.118V20.4436H117.159V10.1868H113.905V7.84558H123.361V10.1767L123.371 10.1868Z" fill="#6D6E71"/>
<path d="M133.091 20.4436H124.77V7.84558H132.929V10.1969H127.709V12.7713H132.635V15.1226H127.709V18.0415H133.091V20.4334V20.4436Z" fill="#6D6E71"/>
<path d="M138.057 20.4436H135.098V7.84558H138.057V20.4334V20.4436Z" fill="#6D6E71"/>
<path d="M151.922 20.4436H148.892L143.358 11.8996C143.358 11.8996 143.409 13.4098 143.409 14.7476V20.4436H140.53V7.84558H143.682L149.084 16.3084C149.084 16.3084 149.034 14.8895 149.034 13.5517V7.84558H151.922V20.4334V20.4436Z" fill="#6D6E71"/>
<path d="M83.1045 36.2442C82.1721 37.0145 80.8951 37.2983 79.4457 37.2983H77.7228V42.4774H74.439V28.4706H79.4559C80.8951 28.4706 82.1721 28.7544 83.1146 29.5246C84.0471 30.2949 84.5741 31.3692 84.5741 32.8794C84.5741 34.3895 84.0471 35.4537 83.1146 36.2544L83.1045 36.2442ZM80.5707 31.3895C80.1653 31.1057 79.6991 31.0044 78.9896 31.0044H77.7126V34.7645H78.9896C79.6991 34.7645 80.1653 34.6632 80.5707 34.3794C80.9559 34.0956 81.2396 33.5888 81.2396 32.8794C81.2396 32.1699 80.9559 31.6834 80.5707 31.3996V31.3895Z" fill="#231F20"/>
<path d="M92.5506 35.4537H92.4087C92.2263 35.3523 91.8006 35.2104 91.233 35.2104C90.5033 35.2104 89.9763 35.6158 89.733 35.9402C89.4898 36.2645 89.2263 36.9131 89.2263 38.028V42.4773H85.9729V32.4638H89.2263L89.206 33.8827H89.2466C89.8141 32.7881 90.6452 32.2814 91.7195 32.2814C92.3884 32.2814 92.733 32.4638 92.733 32.4638L92.5506 35.4435V35.4537Z" fill="#231F20"/>
<path d="M98.4997 42.7003C95.3274 42.7003 92.9355 40.7341 92.9355 37.501C92.9355 34.2679 95.3274 32.2814 98.4997 32.2814C101.672 32.2814 104.044 34.2679 104.044 37.501C104.044 40.7341 101.672 42.7003 98.4997 42.7003ZM98.4997 34.8456C97.0605 34.8456 96.2295 35.9604 96.2295 37.4402C96.2295 38.9199 97.0605 40.0348 98.4997 40.0348C99.9389 40.0348 100.77 38.9199 100.77 37.4402C100.77 35.9604 99.9187 34.8456 98.4997 34.8456Z" fill="#231F20"/>
<path d="M116.186 40.4503C116.186 42.5989 115.638 43.8658 114.665 44.778C113.692 45.6902 112.354 46.3591 110.054 46.3591C107.753 46.3591 105.888 45.3861 105.199 44.8794L106.537 42.7104C107.125 43.1564 108.645 43.8456 109.993 43.8456C111.341 43.8456 112 43.4199 112.344 43.055C112.689 42.6699 112.952 41.9604 112.952 41.0685V40.7442H112.912C112.304 41.5348 111.331 42.1631 109.77 42.1631C107.317 42.1631 105.037 40.4604 105.037 37.2273C105.037 33.9942 107.307 32.2915 109.77 32.2915C111.452 32.2915 112.405 33.0618 112.932 33.751H112.973L112.932 32.4739H116.186V40.4503ZM110.702 34.8253C109.263 34.8253 108.351 35.8793 108.351 37.2375C108.351 38.5956 109.263 39.6699 110.702 39.6699C112.142 39.6699 113.033 38.6158 113.033 37.2375C113.033 35.8591 112.142 34.8253 110.702 34.8253Z" fill="#231F20"/>
<path d="M124.963 35.4537H124.821C124.638 35.3523 124.213 35.2104 123.645 35.2104C122.915 35.2104 122.388 35.6158 122.145 35.9402C121.902 36.2645 121.638 36.9131 121.638 38.028V42.4773H118.385V32.4638H121.638L121.618 33.8827H121.659C122.226 32.7881 123.057 32.2814 124.132 32.2814C124.801 32.2814 125.145 32.4638 125.145 32.4638L124.963 35.4435V35.4537Z" fill="#231F20"/>
<path d="M134.814 42.4773H131.703L131.642 41.4233C131.216 41.8489 130.405 42.7003 128.774 42.7003C127.01 42.7003 125.135 41.7476 125.135 39.5077C125.135 37.2679 127.182 36.528 129.037 36.4469L131.551 36.3456V36.1226C131.551 35.0685 130.801 34.5212 129.503 34.5212C128.206 34.5212 126.949 35.0888 126.432 35.4131L125.581 33.305C126.432 32.8793 127.993 32.2915 129.868 32.2915C131.743 32.2915 132.817 32.7172 133.608 33.4469C134.378 34.1766 134.804 35.1496 134.804 36.8422V42.4875L134.814 42.4773ZM131.581 38.0685L129.98 38.1699C128.986 38.2104 128.399 38.6361 128.399 39.3861C128.399 40.1361 129.027 40.6226 129.919 40.6226C130.811 40.6226 131.378 40.055 131.581 39.7104V38.0685Z" fill="#231F20"/>
<path d="M152.5 42.4773H149.226V37.0348C149.226 35.9604 149.024 34.9469 147.909 34.9469C146.794 34.9469 146.287 35.9604 146.287 37.3388V42.4773H143.034V37.0348C143.034 35.7983 142.75 34.9469 141.696 34.9469C140.561 34.9469 140.074 35.9604 140.074 37.3388V42.4773H136.821V32.4638H140.074L140.054 33.903L140.094 33.8827C140.601 33.0516 141.574 32.2814 142.851 32.2814C144.23 32.2814 145.324 32.7476 145.841 34.1057C146.551 32.8895 147.544 32.2814 149.034 32.2814C151.588 32.2814 152.51 34.0246 152.51 36.4469V42.4773H152.5Z" fill="#231F20"/>
<path d="M160.233 31.3085C159.138 31.3085 158.388 30.6396 158.388 29.626C158.388 28.6125 159.138 27.9436 160.233 27.9436C161.327 27.9436 162.077 28.6328 162.077 29.626C162.077 30.6193 161.327 31.3085 160.233 31.3085ZM161.854 42.4774H158.601V32.4639H161.854V42.4774Z" fill="#231F20"/>
<path d="M173.875 42.4773H170.621V37.2577C170.621 35.9402 170.419 34.9469 169.081 34.9469C167.743 34.9469 167.297 36.0821 167.297 37.5212V42.4773H164.044V32.4638H167.297L167.277 33.903H167.317C167.865 33.0111 168.777 32.2814 170.226 32.2814C173.135 32.2814 173.885 34.1462 173.885 36.5685V42.4773H173.875Z" fill="#231F20"/>
<path d="M189.493 31.0652H185.875V42.4774H182.581V31.0652H178.963V28.4706H189.483V31.0652H189.493Z" fill="#231F20"/>
<path d="M197.905 38.251H190.78C190.922 39.6902 192.017 40.3388 193.334 40.3388C194.652 40.3388 195.767 39.7712 196.334 39.3861L197.611 41.0685C197.287 41.3118 195.97 42.6902 192.858 42.6902C189.747 42.6902 187.517 40.7848 187.517 37.4706C187.517 34.1564 189.949 32.2712 192.919 32.2712C195.888 32.2712 197.936 34.2375 197.936 37.1665C197.936 37.653 197.895 38.2408 197.895 38.2408L197.905 38.251ZM194.916 36.4064C194.895 35.4942 194.226 34.3996 192.868 34.3996C191.51 34.3996 190.841 35.4537 190.801 36.4064H194.926H194.916Z" fill="#231F20"/>
<path d="M207.949 41.5044C207.848 41.5854 206.794 42.7003 204.128 42.7003C201.463 42.7003 198.848 40.8354 198.848 37.501C198.848 34.1665 201.422 32.2814 204.169 32.2814C206.723 32.2814 207.888 33.3354 207.888 33.3354L207.179 35.7881C206.895 35.5652 206.003 34.8962 204.604 34.8962C203.206 34.8962 202.131 35.8489 202.131 37.43C202.131 39.0111 203.125 40.0044 204.645 40.0044C206.165 40.0044 207.179 39.0314 207.179 39.0314L207.949 41.4841V41.5044Z" fill="#231F20"/>
<path d="M219.148 42.4774H215.875V37.2172C215.875 36.001 215.713 34.9469 214.355 34.9469C212.996 34.9469 212.571 36.0821 212.571 37.5618V42.4774H209.317V28.4706H212.571V31.805C212.571 32.8186 212.55 33.9132 212.55 33.9132C213.057 33.0213 214.01 32.2915 215.5 32.2915C218.409 32.2915 219.159 34.1361 219.159 36.5787V42.4875L219.148 42.4774Z" fill="#231F20"/>
<path d="M231.027 42.4773H227.773V37.2577C227.773 35.9402 227.571 34.9469 226.233 34.9469C224.895 34.9469 224.449 36.0821 224.449 37.5212V42.4773H221.196V32.4638H224.449L224.429 33.903H224.469C225.017 33.0111 225.929 32.2814 227.378 32.2814C230.287 32.2814 231.037 34.1462 231.037 36.5685V42.4773H231.027Z" fill="#231F20"/>
<path d="M238.091 42.7003C234.919 42.7003 232.527 40.7341 232.527 37.501C232.527 34.2679 234.919 32.2814 238.091 32.2814C241.263 32.2814 243.635 34.2679 243.635 37.501C243.635 40.7341 241.263 42.7003 238.091 42.7003ZM238.091 34.8456C236.652 34.8456 235.821 35.9604 235.821 37.4402C235.821 38.9199 236.652 40.0348 238.091 40.0348C239.53 40.0348 240.361 38.9199 240.361 37.4402C240.361 35.9604 239.51 34.8456 238.091 34.8456Z" fill="#231F20"/>
<path d="M248.55 42.4774H245.297V28.4706H248.55V42.4774Z" fill="#231F20"/>
<path d="M255.736 42.7003C252.564 42.7003 250.172 40.7341 250.172 37.501C250.172 34.2679 252.564 32.2814 255.736 32.2814C258.909 32.2814 261.28 34.2679 261.28 37.501C261.28 40.7341 258.909 42.7003 255.736 42.7003ZM255.736 34.8456C254.297 34.8456 253.466 35.9604 253.466 37.4402C253.466 38.9199 254.297 40.0348 255.736 40.0348C257.176 40.0348 258.007 38.9199 258.007 37.4402C258.007 35.9604 257.155 34.8456 255.736 34.8456Z" fill="#231F20"/>
<path d="M273.422 40.4503C273.422 42.5989 272.875 43.8658 271.902 44.778C270.929 45.6902 269.591 46.3591 267.29 46.3591C264.99 46.3591 263.125 45.3861 262.436 44.8794L263.773 42.7104C264.361 43.1564 265.882 43.8456 267.23 43.8456C268.577 43.8456 269.236 43.4199 269.581 43.055C269.925 42.6699 270.189 41.9604 270.189 41.0685V40.7442H270.148C269.54 41.5348 268.567 42.1631 267.007 42.1631C264.554 42.1631 262.273 40.4604 262.273 37.2273C262.273 33.9942 264.544 32.2915 267.007 32.2915C268.689 32.2915 269.642 33.0618 270.169 33.751H270.209L270.169 32.4739H273.422V40.4503ZM267.939 34.8253C266.5 34.8253 265.588 35.8793 265.588 37.2375C265.588 38.5956 266.5 39.6699 267.939 39.6699C269.378 39.6699 270.27 38.6158 270.27 37.2375C270.27 35.8591 269.378 34.8253 267.939 34.8253Z" fill="#231F20"/>
<path d="M285.726 32.474L281.257 43.4402C280.527 45.224 279.716 46.3287 278.003 46.3287C276.29 46.3287 275.226 45.8423 275.226 45.8423L275.875 43.4504C275.875 43.4504 276.584 43.7139 277.071 43.7139C277.436 43.7139 277.78 43.7139 278.044 43.0652L278.409 42.1936L274.446 32.4841H277.841L280.111 38.9199L282.361 32.4841H285.716L285.726 32.474Z" fill="#231F20"/>
<path d="M304.801 42.4774H301.061L299.682 40.9774C298.263 42.1328 297.027 42.7207 295.192 42.7207C292.598 42.7207 290.277 41.3828 290.277 38.5957C290.277 36.5889 291.838 35.3423 293.652 34.572C292.983 33.822 292.213 32.9099 292.213 31.5416C292.213 29.2916 294.26 28.1869 296.52 28.1869C298.78 28.1869 300.665 29.2815 300.665 31.4605C300.665 33.0822 299.388 34.3187 298.03 35.0585L299.875 37.1464C300.321 36.6801 301.294 35.3018 301.659 34.6126L303.949 35.8693C303.483 36.6193 302.368 38.241 301.618 39.0011L304.811 42.3153V42.4774H304.801ZM295.334 36.2646L294.929 36.4876C294.28 36.8524 293.449 37.42 293.449 38.4943C293.449 39.5687 294.361 40.2984 295.415 40.2984C296.469 40.2984 297.402 39.7105 297.929 39.1227L295.334 36.2545V36.2646ZM296.571 30.3761C295.76 30.3761 295.213 30.8423 295.213 31.6126C295.213 32.2207 295.659 32.6666 295.882 32.9301L296.348 33.4369C296.956 33.0518 297.888 32.4639 297.888 31.572C297.888 30.8018 297.361 30.3761 296.571 30.3761Z" fill="#231F20"/>
<path d="M322.365 42.4774H319.071V36.6091H313.446V42.4774H310.152V28.4706H313.446V33.8929H319.071V28.4706H322.365V42.4774Z" fill="#231F20"/>
<path d="M334.324 42.4774H331.203L331.182 41.3423C330.757 41.9504 329.703 42.7004 328.264 42.7004C326.824 42.7004 325.912 42.1936 325.395 41.5247C324.909 40.8355 324.666 39.9639 324.666 38.5145V32.4639H327.919V38.0686C327.919 39.224 328.243 40.0145 329.399 40.0145C330.554 40.0145 331.081 39.1024 331.081 37.7848V32.4639H334.334V42.4774H334.324Z" fill="#231F20"/>
<path d="M352.152 42.4773H348.878V37.0348C348.878 35.9604 348.676 34.9469 347.561 34.9469C346.446 34.9469 345.939 35.9604 345.939 37.3388V42.4773H342.686V37.0348C342.686 35.7983 342.402 34.9469 341.348 34.9469C340.213 34.9469 339.726 35.9604 339.726 37.3388V42.4773H336.473V32.4638H339.726L339.706 33.903L339.747 33.8827C340.253 33.0516 341.226 32.2814 342.503 32.2814C343.882 32.2814 344.976 32.7476 345.493 34.1057C346.203 32.8895 347.196 32.2814 348.686 32.2814C351.24 32.2814 352.162 34.0246 352.162 36.4469V42.4773H352.152Z" fill="#231F20"/>
<path d="M363.199 42.4773H360.088L360.027 41.4233C359.601 41.8489 358.791 42.7003 357.159 42.7003C355.395 42.7003 353.52 41.7476 353.52 39.5077C353.52 37.2679 355.568 36.528 357.422 36.4469L359.936 36.3456V36.1226C359.936 35.0685 359.186 34.5212 357.889 34.5212C356.591 34.5212 355.334 35.0888 354.818 35.4131L353.966 33.305C354.818 32.8793 356.378 32.2915 358.253 32.2915C360.128 32.2915 361.203 32.7172 361.993 33.4469C362.763 34.1766 363.189 35.1496 363.189 36.8422V42.4875L363.199 42.4773ZM359.966 38.0685L358.365 38.1699C357.372 38.2104 356.784 38.6361 356.784 39.3861C356.784 40.1361 357.412 40.6226 358.304 40.6226C359.196 40.6226 359.763 40.055 359.966 39.7104V38.0685Z" fill="#231F20"/>
<path d="M375.037 42.4773H371.784V37.2577C371.784 35.9402 371.581 34.9469 370.243 34.9469C368.905 34.9469 368.459 36.0821 368.459 37.5212V42.4773H365.206V32.4638H368.459L368.439 33.903H368.48C369.027 33.0111 369.939 32.2814 371.388 32.2814C374.297 32.2814 375.047 34.1462 375.047 36.5685V42.4773H375.037Z" fill="#231F20"/>
<path d="M378.797 31.3085C377.703 31.3085 376.953 30.6396 376.953 29.626C376.953 28.6125 377.703 27.9436 378.797 27.9436C379.892 27.9436 380.642 28.6328 380.642 29.626C380.642 30.6193 379.892 31.3085 378.797 31.3085ZM380.419 42.4774H377.165V32.4639H380.419V42.4774Z" fill="#231F20"/>
<path d="M388.588 34.947H386.378V38.545C386.378 39.3963 386.5 39.599 386.662 39.7815C386.804 39.9436 387.007 40.0247 387.432 40.0247C387.939 40.0247 388.405 39.8423 388.405 39.8423L388.567 42.3761C388.324 42.4369 387.432 42.7004 386.257 42.7004C385.081 42.7004 384.331 42.3558 383.824 41.768C383.317 41.1801 383.115 40.349 383.115 38.8186V34.9369H381.696V32.4842H383.115V29.7578H386.388V32.4842H388.598V34.9369L388.588 34.947Z" fill="#231F20"/>
<path d="M400 32.474L395.53 43.4402C394.801 45.224 393.99 46.3287 392.277 46.3287C390.564 46.3287 389.5 45.8423 389.5 45.8423L390.149 43.4504C390.149 43.4504 390.858 43.7139 391.344 43.7139C391.709 43.7139 392.054 43.7139 392.317 43.0652L392.682 42.1936L388.719 32.4841H392.115L394.385 38.9199L396.635 32.4841H399.99L400 32.474Z" fill="#231F20"/>
</svg>
